<svg width="800" height="800" viewBox="0 0 800 800" fill="none" xmlns="http://www.w3.org/2000/svg">
<rect x="64" y="64" width="672" height="672" rx="156" fill="#2563EB"/>
<path fill-rule="evenodd" clip-rule="evenodd" d="M595.883 420.718C634.146 442.809 647.256 491.737 625.165 530C603.073 568.263 554.146 581.373 515.883 559.282L479.998 538.564L439.998 515.47L399.998 492.376L359.998 469.282L319.998 446.188L359.998 423.094L379.998 434.641L479.998 492.376L479.998 494.411L483.523 494.411L535.883 524.641C555.014 535.687 579.478 529.132 590.524 510C601.569 490.868 595.014 466.405 575.883 455.359L519.998 423.094L519.998 423.094L519.998 376.906L519.998 376.906L575.883 344.641C595.014 333.595 601.569 309.132 590.524 290C579.478 270.868 555.014 264.313 535.883 275.359L519.998 284.53L519.998 238.497C557.587 219.589 603.858 233.095 625.165 270C647.256 308.263 634.146 357.191 595.883 379.282L559.998 400L595.883 420.718ZM479.998 261.436L479.998 220C479.998 175.817 444.18 140 399.998 140C355.815 140 319.998 175.817 319.998 220L319.998 261.436L284.114 240.718C245.85 218.627 196.923 231.737 174.832 270C153.525 306.905 164.963 353.729 200.132 376.828L239.998 353.812L224.114 344.641C204.982 333.595 198.427 309.132 209.473 290C220.518 270.868 244.982 264.313 264.114 275.359L319.998 307.624L319.998 307.624L359.998 284.53L359.998 284.53L359.998 220C359.998 197.909 377.906 180 399.998 180C422.089 180 439.998 197.909 439.998 220L439.998 284.53L439.998 376.906L439.998 407.46L439.998 423.094L479.998 446.188L479.998 400L479.998 400L479.998 353.812L479.998 307.624L479.998 261.436ZM383.651 363.25L399.998 353.812L399.998 307.624L359.998 330.718L359.998 330.718L319.998 353.812L279.998 376.906L239.998 400L204.114 420.718L204.055 420.752C165.837 442.86 152.752 491.756 174.832 530C196.923 568.263 245.85 581.373 284.114 559.282L319.998 538.564L319.998 580C319.998 624.183 355.815 660 399.998 660C442.611 660 477.443 626.682 479.863 584.674L439.998 561.658L439.998 580C439.998 602.091 422.089 620 399.998 620C377.906 620 359.998 602.091 359.998 580L359.998 515.47L359.998 515.47L319.998 492.376L319.998 492.376L264.114 524.641C244.982 535.687 220.518 529.132 209.473 510C198.427 490.868 204.982 466.405 224.114 455.359L224.114 455.359L279.998 423.094L359.998 376.906L383.651 363.25Z" fill="white"/>
</svg>
